<?xml version="1.0" encoding="UTF-8"?>
<!DOCTYPE svg PUBLIC "-//W3C//DTD SVG 1.1//EN" "http://www.w3.org/Graphics/SVG/1.1/DTD/svg11.dtd">
<!-- Creator: CorelDRAW 2021 (64-Bit Evaluation Version) -->
<svg xmlns="http://www.w3.org/2000/svg" xml:space="preserve" width="3.45in" height="1.7in" version="1.1"
     style="shape-rendering:geometricPrecision; text-rendering:geometricPrecision; image-rendering:optimizeQuality; fill-rule:evenodd; clip-rule:evenodd"
     viewBox="0 0 3450 1700"
>
 <defs>
  <style type="text/css">
   <![CDATA[
    .str5 {stroke:#31B4CA;stroke-width:6.94;stroke-miterlimit:2.61313}
    .str2 {stroke:#7DD4E3;stroke-width:6.94;stroke-miterlimit:2.61313}
    .str3 {stroke:#911FF0;stroke-width:6.94;stroke-miterlimit:2.61313}
    .str0 {stroke:#AB78DA;stroke-width:6.94;stroke-miterlimit:2.61313}
    .str6 {stroke:#ADCDA9;stroke-width:6.94;stroke-miterlimit:2.61313}
    .str4 {stroke:#E0D534;stroke-width:6.94;stroke-miterlimit:2.61313}
    .str1 {stroke:#ECE476;stroke-width:6.94;stroke-miterlimit:2.61313}
    .fil0 {fill:none}
    .fil6 {fill:#31B4CA}
    .fil5 {fill:#7DD4E3}
    .fil3 {fill:#911FF0}
    .fil1 {fill:#AB78DA}
    .fil7 {fill:#ADCDA9}
    .fil4 {fill:#E0D534}
    .fil2 {fill:#ECE476}
    .fil8 {fill:#393939;fill-rule:nonzero}
   ]]>
  </style>
 </defs>
    <g id="Layer_x0020_1">
  <metadata id="CorelCorpID_0Corel-Layer"/>
        <path class="fil0 str0"
              d="M1088.37 710.65c14.05,9.03 74.74,9.95 111.19,62.83 8.72,12.65 38.04,64.33 25.3,77.36"/>
        <path class="fil0 str0"
              d="M1182.7 568.81c18.08,57.32 76.73,153.73 143.46,159.52 5.92,0.51 8.24,0.78 14.04,-0.55"/>
        <path class="fil0 str0"
              d="M1229.18 253.74c-3.15,69.39 -30.88,117.2 -98.25,149.91 -19.86,9.65 -25.18,17.2 -53.65,19.86l-11.8 -2.52"/>
        <path class="fil0 str0" d="M1182.7 568.81c12.24,-50.4 95.74,-190.7 141.2,-174.72"/>
        <path class="fil0 str1"
              d="M1412.87 391.97c14.05,9.03 74.2,13.63 110.65,66.5 8.71,12.64 27.48,63.47 24.51,76.89"/>
        <path class="fil0 str1" d="M1504.85 265.49c60.35,115.58 12.54,104.15 136,162.31 3.77,1.77 9,0 19.2,-1.92"/>
        <path class="fil0 str2" d="M1743.7 708.76c14.05,9.03 60.24,21.47 80.55,65.38 7.4,16 34.97,84.38 29.58,102.4"/>
        <path class="fil0 str2"
              d="M1809.46 630.48c8.85,-4.22 -7.57,-6.93 16.71,25.37 40.55,53.96 112.9,62.35 133.71,77.94"/>
        <path class="fil0 str2" d="M2294.07 711.01c-11.29,-4.22 -141.06,11.17 -164.41,159.83"/>
        <path class="fil0 str2" d="M2174.96 548.37c-9.52,8.52 -23.6,180.89 -146.38,186.67"/>
        <path class="fil0 str1"
              d="M1990.02 398.59c-71.84,27.3 -91.8,20.02 -138.51,88.33 -7.79,11.39 -33.46,74.16 -31.71,86.68"/>
        <path class="fil0 str1"
              d="M1870.2 261.54c-1.19,14.07 0.51,9.5 -14.65,31.66 -31.15,45.57 -41.23,75.85 -88.11,110.83 -23.35,17.42 -49.8,22.17 -54.98,23.79"/>
        <rect class="fil1 str0" transform="matrix(1.41781 1.33363 -1.33363 1.41781 1096.19 545.785)" width="215.95"
              height="47.02"/>
        <path class="fil1 str0"
              d="M1185.89 585.02c0.03,0.06 5.93,4.83 7.49,17.5 0.25,2.03 10.8,23.67 12.15,25.24 2.62,3.06 12.78,25.15 17.14,29.73 1.41,1.49 12.54,16.82 6.67,16.94 -9.71,0.2 -21.2,-6.29 -26.99,-13.65 -8.23,-10.47 -31.8,-42.67 -26.69,-58.42 1.42,-4.38 2.82,-14.04 6.83,-15.7 0.76,-0.31 3.37,-1.72 3.41,-1.63z"/>
        <path class="fil1 str0"
              d="M1256.2 699.08c0.06,0.03 7.61,0.67 16.01,10.29 1.34,1.54 22.22,13.55 24.21,14.09 3.89,1.06 24.68,13.66 30.86,15.01 2.01,0.44 19.82,6.9 15.02,10.29 -7.93,5.61 -21.08,6.68 -30.01,3.82 -12.69,-4.05 -50.25,-17.51 -54.85,-33.41 -1.28,-4.42 -5.53,-13.2 -3.15,-16.83 0.45,-0.68 1.83,-3.32 1.91,-3.26z"/>
        <path class="fil0 str0"
              d="M1094.7 713.28c0.09,-0 5.34,1.14 7.67,1.14 4.31,0 37.91,7.26 39.78,8.6 1.63,1.17 9.31,5.13 10.24,2.68 4.57,-12.08 -30.42,-32.45 -39.15,-29.48 -1.72,0.58 -12.18,5.46 -13.23,7.01 -0.22,0.32 -4.25,10.59 -4.32,11.04"/>
        <path class="fil0 str0"
              d="M1097.62 710.72c0.07,-0 3.99,0.85 5.73,0.85 3.22,0 28.3,5.42 29.69,6.42 1.22,0.88 6.95,3.83 7.65,2 3.41,-9.02 -22.71,-24.22 -29.22,-22 -1.28,0.43 -9.09,4.08 -9.88,5.23 -0.16,0.24 -3.17,7.91 -3.22,8.24"/>
        <path class="fil0 str0"
              d="M1105.57 709.17c0.04,0 2.66,0.57 3.82,0.57 2.15,0 18.87,3.61 19.8,4.28 0.81,0.59 4.63,2.56 5.1,1.33 2.28,-6.01 -15.14,-16.15 -19.49,-14.67 -0.85,0.29 -6.06,2.72 -6.58,3.49 -0.11,0.16 -2.12,5.28 -2.15,5.5"/>
        <path class="fil0 str0"
              d="M1111.69 706.75c0.02,-0 1.27,0.27 1.83,0.27 1.03,0 9.03,1.73 9.48,2.05 0.39,0.28 2.22,1.22 2.44,0.64 1.09,-2.87 -7.25,-7.73 -9.33,-7.02 -0.41,0.14 -2.9,1.3 -3.15,1.67 -0.05,0.07 -1.01,2.52 -1.03,2.63"/>
        <path class="fil0 str0"
              d="M1228.84 827c-0.11,-0.11 0.95,-7.65 -1.07,-11.93 -3.07,-6.48 -6.5,-16.02 -11.46,-22.13 -0.19,-0.22 -15.4,-31.62 -0.44,-8.09 9.63,15.15 12.38,19.38 13.95,22.06 2.36,4.03 3.16,9 3.98,9 0.96,0 1.7,-5.55 0.94,-9.28 -1.23,-5.99 -8.06,-14.15 -11.56,-17.68"/>
        <rect class="fil2 str1" transform="matrix(1.15375 1.08525 -1.08525 1.15375 1440.65 272.814)" width="215.95"
              height="47.02"/>
        <path class="fil2 str1"
              d="M1508.89 273.34c-8.59,-1.82 -8.63,-4.21 -20.09,-2.15 -23.34,4.21 -15.35,55.87 -5.39,72.12 8.46,13.81 39.11,27.58 56.11,26.75 12.19,-0.59 2.26,-11.76 0.73,-22.91 -1.51,-11.04 -30.26,-65.04 -30.11,-67.35 0.12,-1.97 -0.62,-6.32 -1.24,-6.46z"/>
        <path class="fil2 str1"
              d="M1441.58 313.84c-8.59,-1.82 -8.63,-4.21 -20.09,-2.15 -23.34,4.21 -15.35,55.87 -5.39,72.12 8.46,13.81 39.11,27.58 56.11,26.75 12.19,-0.59 2.26,-11.76 0.73,-22.91 -1.51,-11.04 -30.26,-65.04 -30.11,-67.35 0.12,-1.97 -0.62,-6.32 -1.24,-6.46z"/>
        <path class="fil2 str1"
              d="M1556.54 527.98c8.59,1.82 8.63,4.21 20.09,2.15 23.34,-4.21 15.35,-55.87 5.39,-72.12 -8.46,-13.81 -39.11,-27.58 -56.11,-26.75 -12.19,0.59 -2.26,11.76 -0.73,22.91 1.51,11.04 30.26,65.04 30.11,67.35 -0.12,1.97 0.62,6.32 1.24,6.46z"/>
        <path class="fil2 str1"
              d="M1573.11 395.18c-8,3.61 -9.45,1.71 -17.47,10.15 -16.33,17.2 20.66,54.13 38.3,61.35 14.99,6.14 47.85,-0.89 61.07,-11.61 9.48,-7.69 -5.13,-10.82 -12.96,-18.91 -7.75,-8.02 -62.86,-34.56 -64.11,-36.51 -1.07,-1.66 -4.24,-4.73 -4.82,-4.47z"/>
        <rect class="fil1 str0" transform="matrix(1.2632 -1.48091 1.48091 1.2632 1025.64 560.931)" width="215.95"
              height="47.02"/>
        <path class="fil1 str0"
              d="M1230.83 283.04c-6.88,7.74 -9.59,31.04 -11.41,32.89 -0.06,0.06 -9.99,18.26 -9.98,19.33 0.03,5.17 -4.9,6.34 5.97,5.8 10.7,-0.53 14.33,-7.19 21.14,-14.06 13.78,-13.9 4.52,-44.25 -3.77,-44.25 -1.03,0 -1.31,-0.43 -1.95,0.29z"/>
        <path class="fil1 str0"
              d="M1303.64 342.84c-6.88,7.74 -9.59,31.04 -11.41,32.89 -0.06,0.06 -9.99,18.26 -9.98,19.33 0.03,5.17 -4.9,6.34 5.97,5.8 10.7,-0.53 14.33,-7.19 21.14,-14.06 13.78,-13.9 4.52,-44.25 -3.77,-44.25 -1.03,0 -1.31,-0.43 -1.95,0.29z"/>
        <path class="fil1 str0"
              d="M1181.64 377.8c-16.86,2.46 -44.93,28.92 -49.19,29.33 -0.15,0.01 -31.92,12.41 -33.04,13.76 -5.44,6.54 -12.88,2.79 1.38,13.63 14.04,10.67 25.65,6.12 41.5,4.69 32.07,-2.91 52.56,-50.93 42.12,-59.7 -1.3,-1.09 -1.2,-1.93 -2.76,-1.7z"/>
        <path class="fil1 str0"
              d="M1176.82 564.78c14.23,-12.44 24.46,-54.01 28.18,-56.96 0.13,-0.1 22.28,-30.78 22.51,-32.72 1.12,-9.37 10.32,-10.36 -9.49,-11.87 -19.51,-1.49 -27.59,9.74 -41.5,20.62 -28.13,22.03 -18.31,79.11 -3.3,81 1.86,0.24 2.28,1.07 3.6,-0.08z"/>
        <ellipse class="fil3 str3" cx="1367.35" cy="250.75" rx="138.17" ry="149.53"/>
        <ellipse class="fil3 str3" cx="1363.02" cy="875.28" rx="138.17" ry="149.53"/>
        <ellipse class="fil3 str3" cx="1044.53" cy="568.81" rx="138.17" ry="149.53"/>
        <rect class="fil2 str1" transform="matrix(-1.57753 1.48386 1.48386 1.57753 2000.66 193.322)" width="215.95"
              height="47.02"/>
        <path class="fil2 str1"
              d="M1896.88 432.42c-1.71,-6.97 58.7,-22.19 69.6,-29.5 3.6,-2.41 23.95,-3.35 -4.73,-12.77 -30.02,-9.86 -15.76,-4.9 -45.46,19.83 -1.55,1.29 -19.16,23.48 -19.41,22.43z"/>
        <path class="fil2 str1"
              d="M1806.21 366.12c8.28,4.38 46.7,-67.22 59.41,-78.69 4.19,-3.79 11.84,-29.24 14.65,10.04 2.94,41.11 1.2,21.49 -39.52,51.21 -2.12,1.55 -35.79,16.79 -34.54,17.44z"/>
        <path class="fil2 str1"
              d="M1863.67 461.56c-7.43,-2.15 -26.52,62.22 -34.88,73.63 -2.76,3.77 -4.68,25.64 -13.54,-5.66 -9.27,-32.78 -4.57,-17.19 23.39,-48.07 1.46,-1.61 26.14,-19.58 25.03,-19.9z"/>
        <path class="fil2 str1"
              d="M1782.12 399.87c2.07,7.46 -62.51,25.82 -74.02,34.05 -3.8,2.72 -25.69,4.39 5.51,13.6 32.67,9.64 17.13,4.76 48.33,-22.85 1.63,-1.44 19.87,-25.92 20.19,-24.8z"/>
        <ellipse class="fil4 str4" cx="2007.99" cy="250.31" rx="138.17" ry="149.53"/>
        <rect class="fil5 str2" transform="matrix(-1.46408 1.37716 1.37716 1.46408 2245.91 570.202)" width="215.95"
              height="47.02"/>
        <path class="fil5 str2"
              d="M2198.26 740.13c-1.71,-6.97 58.7,-22.19 69.6,-29.5 3.6,-2.41 23.95,-3.35 -4.73,-12.77 -30.02,-9.86 -15.76,-4.9 -45.46,19.83 -1.55,1.29 -19.16,23.48 -19.41,22.43z"/>
        <path class="fil5 str2"
              d="M2159.85 777.76c-6.99,-1.63 -21.52,58.94 -28.71,69.93 -2.37,3.63 -3.08,23.98 -12.82,-4.58 -10.2,-29.91 -5.08,-15.7 19.31,-45.68 1.27,-1.56 23.26,-19.42 22.21,-19.67z"/>
        <path class="fil5 str2"
              d="M2112.16 709.04c1.71,6.97 -58.7,22.19 -69.6,29.5 -3.6,2.41 -23.95,3.35 4.73,12.77 30.02,9.86 15.76,4.9 45.46,-19.83 1.55,-1.29 19.16,-23.48 19.41,-22.43z"/>
        <path class="fil5 str2"
              d="M2131.08 673.29c9.73,2.15 28.87,-82.2 38.66,-97.57 3.22,-5.08 3.86,-33.35 17.88,6.15 14.67,41.35 7.31,21.71 -26.04,63.74 -1.74,2.19 -31.96,27.36 -30.5,27.68z"/>
        <ellipse class="fil6 str5" cx="2312.49" cy="562.79" rx="138.17" ry="149.53"/>
        <rect class="fil5 str2" transform="matrix(1.22117 1.14867 -1.14867 1.22117 1745.93 584.545)" width="215.95"
              height="47.02"/>
        <path class="fil5 str2"
              d="M1868.57 698.72c-1.75,7.96 67.19,23.56 79.76,31.56 4.15,2.63 27.26,3.14 -5.01,14.61 -33.79,12.01 -17.74,5.99 -52.11,-21.26 -1.79,-1.42 -22.37,-26.11 -22.63,-24.91z"/>
        <path class="fil5 str2"
              d="M1821.35 759.51c8,-1.53 21.64,67.83 29.28,80.62 2.52,4.23 2.37,27.34 14.75,-4.59 12.96,-33.43 6.49,-17.56 -19.76,-52.69 -1.37,-1.83 -25.46,-23.11 -24.26,-23.33z"/>
        <path class="fil5 str2"
              d="M1803.83 675.06c1.77,5.09 -42.34,20.72 -49.98,26.96 -2.52,2.06 -17.67,4.19 4.43,9.22 23.15,5.26 12.13,2.56 32.6,-18.03 1.07,-1.07 12.68,-18.91 12.94,-18.14z"/>
        <path class="fil5 str2"
              d="M1771.14 596.05c8,-1.53 21.64,67.83 29.28,80.62 2.52,4.23 2.37,27.34 14.75,-4.59 12.96,-33.43 6.49,-17.56 -19.76,-52.69 -1.37,-1.83 -25.46,-23.11 -24.26,-23.33z"/>
        <ellipse class="fil6 str5" cx="1991.98" cy="879.27" rx="138.17" ry="149.53"/>
        <ellipse class="fil7 str6" cx="1681.64" cy="573.6" rx="138.17" ry="149.53"/>
        <path class="fil8"
              d="M366.09 1584.69c15.63,0 22.5,-6.87 22.5,-22.5l0 -74.37c0,-15.63 -6.87,-22.5 -22.5,-22.5l-125.62 0c-26.25,0 -38.13,-9.37 -38.13,-30l0 -148.75c0,-21.25 11.87,-31.25 38.13,-31.25l125.62 0c15.63,0 22.5,-6.87 22.5,-22.5l0 -75.62c0,-15.63 -6.87,-22.5 -22.5,-22.5l-152.5 0c-105,0 -153.75,40.62 -153.75,128.12l0 194.37c0,86.87 48.75,127.5 153.75,127.5l152.5 0z"/>
        <path id="_1" class="fil8"
              d="M622.33 1265.94c3.13,-7.5 6.87,-10.63 11.87,-10.63l15.63 0c5,0 8.75,3.13 11.87,10.63l29.38 95 -98.13 0 29.37 -95zm-35.63 296.25l0 -87.5 110.63 0 0 87.5c0,15.63 7.5,22.5 24.37,22.5l94.37 0c15.63,0 22.5,-6.87 22.5,-22.5l0 -165c0,-25 -7.5,-56.25 -24.37,-100l-54.37 -141.87c-5,-14.37 -15,-20.62 -31.25,-20.62l-168.12 0c-16.87,0 -26.87,6.25 -31.87,20.62l-54.37 141.87c-16.88,43.75 -24.38,75 -24.38,100l0 165c0,15.63 6.88,22.5 22.5,22.5l91.88 0c15.62,0 22.5,-6.87 22.5,-22.5z"/>
        <path id="_2" class="fil8"
              d="M1256.08 1584.69c15.63,0 22.5,-6.87 22.5,-22.5l0 -196.87c0,-15.63 -6.87,-22.5 -22.5,-22.5l-90.63 0c-15.62,0 -22.5,6.87 -22.5,22.5l0 101.25 -85.62 0 0 -309.37c0,-15.63 -6.88,-22.5 -22.5,-22.5l-96.87 0c-15.63,0 -22.5,6.87 -22.5,22.5l0 405c0,15.63 6.87,22.5 22.5,22.5l318.12 0z"/>
        <path id="_3" class="fil8"
              d="M1558.58 1584.69c80.62,0 129.37,-38.75 129.37,-110l0 -65.62c0,-70 -38.75,-95 -97.5,-103.75l-93.13 -12.5c-10.62,-1.25 -16.87,-8.75 -16.87,-20 0,-11.25 6.25,-18.75 16.87,-18.75l145.63 0c15.63,0 22.5,-6.87 22.5,-22.5l0 -74.37c0,-15.63 -6.87,-22.5 -22.5,-22.5l-175 0c-81.25,0 -129.37,38.75 -129.37,110l0 65.62c0,70 38.13,95 96.87,103.75l93.75 13.12c10.62,1.25 16.25,6.87 16.25,21.25 0,10 -5.63,18.12 -16.25,18.12l-168.13 0c-15.63,0 -22.5,6.88 -22.5,22.5l0 73.13c0,15.63 6.87,22.5 22.5,22.5l197.5 0z"/>
        <path id="_4" class="fil8"
              d="M2068.58 1584.69c15.63,0 22.5,-6.87 22.5,-22.5l0 -73.13c0,-15.62 -6.87,-22.5 -22.5,-22.5l-172.5 0 0 -53.75 121.88 0c15.62,0 22.5,-6.87 22.5,-22.5l0 -66.87c0,-15.63 -6.87,-22.5 -22.5,-22.5l-121.88 0 0 -48.13 172.5 0c15.63,0 22.5,-6.87 22.5,-22.5l0 -73.12c0,-15.63 -6.87,-22.5 -22.5,-22.5l-290 0c-15.63,0 -22.5,6.87 -22.5,22.5l0 405c0,15.63 6.87,22.5 22.5,22.5l290 0z"/>
        <path id="_5" class="fil8"
              d="M2177.33 1584.69l266.25 0c15.62,0 22.5,-6.87 22.5,-22.5l0 -74.37c0,-15.63 -6.88,-22.5 -22.5,-22.5l-60.63 0 0 -210 60.63 0c15.62,0 22.5,-6.87 22.5,-22.5l0 -75.62c0,-15.63 -6.88,-22.5 -22.5,-22.5l-266.25 0c-15.63,0 -22.5,6.87 -22.5,22.5l0 75.62c0,15.63 6.87,22.5 22.5,22.5l61.87 0 0 210 -61.87 0c-15.63,0 -22.5,6.87 -22.5,22.5l0 74.37c0,15.63 6.87,22.5 22.5,22.5z"/>
        <path id="_6" class="fil8"
              d="M2809.2 1584.69c16.25,0 25.62,-5 31.87,-20.63l61.25 -153.12c15,-37.5 20,-49.37 20,-88.75l0 -165c0,-15.63 -6.25,-22.5 -22.5,-22.5l-98.12 0c-15.63,0 -22.5,6.87 -22.5,22.5l0 171.87c0,8.75 -1.87,16.25 -5,25.62l-29.37 88.13c-2.5,8.13 -5,10.63 -11.88,10.63l-6.87 0c-6.87,0 -9.37,-2.5 -11.87,-10.63l-29.37 -87.5c-3.13,-9.37 -5,-16.87 -5,-25.63l0 -172.5c0,-15.63 -8.75,-22.5 -24.37,-22.5l-99.38 0c-15.62,0 -22.5,6.87 -22.5,22.5l0 165c0,39.38 5,51.25 20,88.75l61.25 153.12c6.25,15.63 15.63,20.63 31.87,20.63l162.5 0z"/>
        <path id="_7" class="fil8"
              d="M3265.45 1584.69c16.25,0 25.62,-5 31.87,-20.63l61.25 -153.12c15,-37.5 20,-49.37 20,-88.75l0 -165c0,-15.63 -6.25,-22.5 -22.5,-22.5l-98.12 0c-15.63,0 -22.5,6.87 -22.5,22.5l0 171.87c0,8.75 -1.87,16.25 -5,25.62l-29.37 88.13c-2.5,8.13 -5,10.63 -11.88,10.63l-6.87 0c-6.87,0 -9.37,-2.5 -11.87,-10.63l-29.37 -87.5c-3.13,-9.37 -5,-16.87 -5,-25.63l0 -172.5c0,-15.63 -8.75,-22.5 -24.37,-22.5l-99.38 0c-15.62,0 -22.5,6.87 -22.5,22.5l0 165c0,39.38 5,51.25 20,88.75l61.25 153.12c6.25,15.63 15.63,20.63 31.87,20.63l162.5 0z"/>
 </g>
</svg>
